<svg width="118" height="78" viewBox="0 0 118 78" fill="none" xmlns="http://www.w3.org/2000/svg">
<g clip-path="url(#clip0_134_63)">
<path d="M55.6829 0.0365278C54.8628 -0.161427 53.166 0.478528 51.3789 1.15216C50.0042 1.67039 48.577 2.20871 47.4554 2.40076C46.6359 2.54139 45.8506 3.41712 45.5804 4.0358C41.7252 12.9026 38.0443 21.8444 34.5397 30.856C29.7591 31.6767 25.0005 32.6213 20.2688 33.6888C24.1055 23.8088 27.993 14.0659 31.785 4.68698C33.6506 0.0719826 28.7394 -0.363517 26.8337 4.31471L26.7122 4.61194C24.2123 10.7527 19.6416 21.9764 14.5936 35.026C10.5895 36.0095 6.60578 37.0744 2.64488 38.2199C-0.391262 39.098 -0.522242 39.9081 0.792278 41.7323C1.19879 42.2966 1.84012 42.5158 2.44723 42.7232C2.9328 42.8893 3.39713 43.0482 3.70098 43.3697C4.08212 43.7727 4.43022 44.1922 4.77419 44.6064C6.03207 46.1209 7.22859 47.5616 9.72016 47.8281C6.88639 55.4035 4.0597 63.2148 1.49969 70.7364C-0.107472 75.4578 4.4727 76.4239 6.23208 71.4284C9.0688 63.3749 12.063 55.2227 15.1328 47.0953C17.3087 46.5889 22.1166 45.5466 27.029 44.4812L27.0319 44.4806L29.6144 43.9204C25.0678 56.385 22.0789 65.8532 20.9532 70.4605C20.7626 71.2428 21.0204 71.7179 21.2104 72.0672C21.2358 72.1138 21.2594 72.1582 21.2812 72.2007C22.0163 73.2738 22.7344 73.8523 23.5014 74.4704C24.3309 75.1387 25.2165 75.8525 26.2431 77.2878C26.78 78.0413 28.5677 78.4472 29.1801 76.5935C33.3851 63.8636 37.7115 51.9201 41.7501 41.2123C43.4263 40.8447 46.4441 40.1155 48.2932 37.3554C50.3481 34.2862 51.4874 33.5298 52.2456 33.027C52.6975 32.7268 53.0138 32.517 53.3076 31.9604C54.2947 30.0913 53.6415 28.3358 50.1352 28.7695C50.1352 28.7695 48.8112 28.864 46.3686 29.1429C48.0029 24.928 49.5516 20.9825 50.9794 17.3437V17.3419C52.9447 12.3333 54.6817 7.90685 56.1006 4.16166C56.9308 1.96939 57.0417 0.364482 55.6829 0.0371187V0.0365278ZM82.8855 2.36766C87.1665 0.253982 89.2917 0.535846 89.3377 2.67021C89.3973 5.39312 89.0038 8.98466 88.7123 11.6443L88.6946 11.8063C88.1642 16.6488 87.5146 21.1958 86.8768 25.6595C85.6042 34.5687 84.3793 43.1445 84.2448 53.0706C91.2416 34.9279 97.1115 22.3185 104.665 6.7853C106.513 2.98162 107.845 2.65071 109.259 2.29912C109.682 2.19394 110.112 2.08698 110.566 1.88489C118.246 -1.53765 118.534 0.5648 117.53 4.74371C113.803 20.2515 104.282 69.0653 102.823 76.5811C102.4 78.7557 100.044 77.8344 99.4291 76.9835C98.2154 75.3036 96.934 74.3575 95.9144 73.6047C94.6371 72.6616 93.7704 72.0217 93.9621 70.6212C95.6755 58.0898 101.843 26.6493 103.451 19.2399C95.2483 36.0713 86.7488 57.1113 82.3852 69.0405C81.4577 71.5738 79.7738 71.3882 78.7236 69.5345C78.1466 68.517 77.3578 67.6938 76.5825 66.8855C75.3736 65.6251 74.1983 64.3995 73.9104 62.5258C72.9387 56.1877 73.9446 46.1298 74.8957 36.6244C75.4125 31.4581 75.9129 26.4549 76.0704 22.3008C71.6076 35.1856 64.114 60.2041 60.8319 71.5076C59.4743 76.1846 54.9696 75.4212 56.1667 70.8629C61.1558 51.8935 71.8979 18.3441 76.5506 6.27889C77.3271 4.26566 78.9968 3.73207 80.7509 3.17071C81.4665 2.94144 82.1964 2.70803 82.8855 2.36766Z" fill="black"/>
<path d="M50.4735 57.6492C50.7733 57.3579 51.0804 57.0741 51.3945 56.7983C53.5002 54.9706 55.5109 56.7835 53.4294 59.8734C52.9522 60.5862 52.4489 61.2811 51.9208 61.9569C52.1839 62.7079 52.4187 63.3544 52.6052 63.8336C53.6819 66.5979 50.8552 67.291 49.9443 65.0013C49.8603 64.7895 49.7777 64.5771 49.6965 64.3643C47.9778 65.8888 45.9913 66.8485 43.8673 66.1872C40.3745 65.0988 39.4853 60.1729 42.7468 56.3781C44.0555 54.8554 45.0402 53.7988 45.8632 52.955C45.6154 52.1425 45.4148 51.4612 45.2833 50.9843C44.8596 49.4479 44.4773 47.6575 46.0125 45.8322C48.8917 42.4108 55.5705 45.4481 52.1922 50.7154C51.378 51.9841 50.4269 53.1825 49.4345 54.3974C49.7749 55.4832 50.1213 56.5671 50.4735 57.6492ZM46.3199 58.3281C44.6018 60.6906 45.619 61.5315 46.8951 60.7491C47.3161 60.4856 47.7175 60.1922 48.0964 59.871C47.7913 58.9713 47.4916 58.0697 47.1972 57.1664C46.8983 57.5488 46.6062 57.9361 46.3199 58.3281ZM48.2687 50.5358C48.5797 50.2134 48.8838 49.8844 49.1808 49.549C51.3077 47.144 47.1028 46.1377 48.071 49.8161C48.1253 50.0235 48.1931 50.2675 48.2687 50.5358Z" fill="black"/>
</g>
<defs>
<clipPath id="clip0_134_63">
<rect width="118" height="78" fill="white"/>
</clipPath>
</defs>
</svg>
