<svg width="30" height="29" viewBox="0 0 30 29" fill="none" xmlns="http://www.w3.org/2000/svg">
<path fill-rule="evenodd" clip-rule="evenodd" d="M15 0C12.99 0 11.1 0.55875 9.675 1.40625C8.355 2.19375 7.02938 3.49688 7.02938 5.15625V8.4375L0 8.43937V28.125H30V8.4375H22.9688V5.15625C22.9688 3.48187 21.6562 2.175 20.325 1.3875C18.9 0.54375 17.01 0 15 0ZM20.1562 11.25V16.875H22.9688V11.25H27.1875V25.3125H2.8125V11.25H7.03125V16.875H9.84375V11.25H20.1562ZM20.1562 8.4375V5.15625C20.1562 5.00625 19.9556 4.43813 18.8925 3.80625C17.9194 3.2325 16.53 2.8125 15 2.8125C13.485 2.8125 12.0938 3.24 11.1187 3.82313C10.0369 4.46625 9.84375 5.03813 9.84375 5.15625V8.4375H20.1562Z" fill="black"/>
</svg>
