<svg width="30" height="30" viewBox="0 0 30 30" fill="none" xmlns="http://www.w3.org/2000/svg">
<path fill-rule="evenodd" clip-rule="evenodd" d="M22.5 7.5C22.5 9.48912 21.7098 11.3968 20.3033 12.8033C18.8968 14.2098 16.9891 15 15 15C13.0109 15 11.1032 14.2098 9.6967 12.8033C8.29018 11.3968 7.5 9.48912 7.5 7.5C7.5 5.51088 8.29018 3.60322 9.6967 2.1967C11.1032 0.790176 13.0109 0 15 0C16.9891 0 18.8968 0.790176 20.3033 2.1967C21.7098 3.60322 22.5 5.51088 22.5 7.5ZM19.6875 7.5C19.6875 8.7432 19.1936 9.93549 18.3146 10.8146C17.4355 11.6936 16.2432 12.1875 15 12.1875C13.7568 12.1875 12.5645 11.6936 11.6854 10.8146C10.8064 9.93549 10.3125 8.7432 10.3125 7.5C10.3125 6.2568 10.8064 5.06451 11.6854 4.18544C12.5645 3.30636 13.7568 2.8125 15 2.8125C16.2432 2.8125 17.4355 3.30636 18.3146 4.18544C19.1936 5.06451 19.6875 6.2568 19.6875 7.5ZM15 17.8125C11.46 17.8125 7.82625 18.1894 5.02688 19.4156C3.61125 20.0344 2.34562 20.9025 1.43062 22.1063C0.5025 23.3325 0 24.825 0 26.5688V30H2.8125V26.5688C2.8125 25.395 3.13875 24.51 3.67125 23.8069C4.21875 23.0869 5.04375 22.4794 6.15562 21.9919C8.41313 21.0037 11.5763 20.625 15 20.625C18.4369 20.625 21.5962 20.9662 23.8519 21.9375C24.96 22.4137 25.7831 23.0138 26.325 23.7375C26.8556 24.4406 27.1875 25.3481 27.1875 26.5706V30H30V26.5706C30 24.7931 29.5031 23.28 28.5731 22.0444C27.6544 20.8256 26.3831 19.9631 24.9638 19.3519C22.1625 18.1462 18.525 17.8125 15 17.8125Z" fill="black"/>
</svg>
