<svg width="30" height="30" viewBox="0 0 30 30" fill="none" xmlns="http://www.w3.org/2000/svg">
<path fill-rule="evenodd" clip-rule="evenodd" d="M18.4178 20.4053C16.3354 21.984 13.7314 22.7133 11.132 22.4459C8.53264 22.1784 6.1317 20.9341 4.41446 18.9645C2.69722 16.9948 1.79174 14.4467 1.88103 11.8351C1.97032 9.22354 3.04771 6.74322 4.89547 4.89547C6.74322 3.04771 9.22354 1.97032 11.8351 1.88103C14.4467 1.79174 16.9948 2.69722 18.9645 4.41446C20.9341 6.1317 22.1784 8.53264 22.4459 11.132C22.7133 13.7314 21.984 16.3354 20.4053 18.4178L29.2553 27.2678L27.2678 29.2553L18.4178 20.4053ZM19.6871 12.1871C19.6871 14.1763 18.897 16.0839 17.4904 17.4904C16.0839 18.897 14.1763 19.6871 12.1871 19.6871C10.198 19.6871 8.29036 18.897 6.88384 17.4904C5.47731 16.0839 4.68714 14.1763 4.68714 12.1871C4.68714 10.198 5.47731 8.29036 6.88384 6.88384C8.29036 5.47731 10.198 4.68714 12.1871 4.68714C14.1763 4.68714 16.0839 5.47731 17.4904 6.88384C18.897 8.29036 19.6871 10.198 19.6871 12.1871Z" fill="black"/>
</svg>
