<svg width="30" height="30" viewBox="0 0 30 30" fill="none" xmlns="http://www.w3.org/2000/svg">
<path d="M16.307 4.22446C17.8119 2.72357 19.8511 1.88137 21.9766 1.88281C24.102 1.88426 26.14 2.72925 27.643 4.23218C29.1459 5.73512 29.9909 7.77312 29.9923 9.8986C29.9938 12.0241 29.1516 14.0632 27.6507 15.5682L15.0001 28.2188L2.34946 15.5701C0.84857 14.0651 0.00636585 12.0259 0.00781437 9.90047C0.00926289 7.775 0.854245 5.73699 2.35718 4.23406C3.86012 2.73112 5.89812 1.88614 8.0236 1.88469C10.1491 1.88324 12.1882 2.72544 13.6932 4.22633L15.0001 5.52758L16.3051 4.22258L16.307 4.22446ZM25.6632 6.21196C25.1795 5.72791 24.6051 5.34392 23.9729 5.08194C23.3408 4.81996 22.6631 4.68512 21.9788 4.68512C21.2945 4.68512 20.6169 4.81996 19.9847 5.08194C19.3525 5.34392 18.7782 5.72791 18.2945 6.21196L15.0057 9.50633L11.7057 6.21571C10.7214 5.27639 9.40866 4.75935 8.04815 4.77509C6.68764 4.79084 5.38726 5.33812 4.42492 6.29997C3.46259 7.26181 2.91464 8.56192 2.89821 9.92242C2.88177 11.2829 3.39814 12.5959 4.33696 13.5807L15.0001 24.2401L25.6613 13.5788C26.6378 12.6021 27.1863 11.2775 27.1863 9.89633C27.1863 8.5152 26.6378 7.19061 25.6613 6.21383L25.6632 6.21196Z" fill="black"/>
</svg>
