<svg width="86" height="57" viewBox="0 0 86 57" fill="none" xmlns="http://www.w3.org/2000/svg">
<g clip-path="url(#clip0_96_274)">
<path d="M40.5825 0.026622C39.9848 -0.11765 38.7481 0.348758 37.4456 0.839713C36.4437 1.2174 35.4036 1.60974 34.5861 1.7497C33.9888 1.8522 33.4165 2.49044 33.2196 2.94135C30.4099 9.4036 27.7272 15.9205 25.173 22.4883C21.6888 23.0864 18.2207 23.7748 14.7722 24.5529C17.5684 17.3522 20.4017 10.2514 23.1653 3.41594C24.525 0.0524619 20.9457 -0.264936 19.5568 3.14462L19.4682 3.36124C17.6463 7.83669 14.3151 16.0167 10.636 25.5274C7.71776 26.2442 4.81438 27.0203 1.92762 27.8552C-0.285157 28.4951 -0.380617 29.0856 0.577423 30.415C0.873693 30.8263 1.3411 30.9861 1.78357 31.1373C2.13746 31.2583 2.47587 31.3741 2.69732 31.6084C2.9751 31.9021 3.2288 32.2079 3.47949 32.5098C4.39625 33.6136 5.26829 34.6635 7.08418 34.8577C5.01889 40.3788 2.95876 46.0718 1.09299 51.5537C-0.0783272 54.9947 3.25976 55.6988 4.54202 52.058C6.60946 46.1885 8.79171 40.2471 11.029 34.3237C12.6148 33.9547 16.1189 33.195 19.6991 32.4185L19.7012 32.418L21.5834 32.0098C18.2698 41.0942 16.0914 47.9947 15.271 51.3526C15.1321 51.9228 15.32 52.269 15.4584 52.5235C15.4769 52.5575 15.4941 52.5898 15.51 52.6209C16.0458 53.4029 16.5691 53.8246 17.1281 54.275C17.7327 54.7621 18.3781 55.2824 19.1263 56.3284C19.5176 56.8775 20.8205 57.1734 21.2669 55.8224C24.3315 46.5446 27.4847 37.8401 30.428 30.0361C31.6497 29.7682 33.8491 29.2367 35.1967 27.2251C36.6944 24.9883 37.5247 24.437 38.0773 24.0705C38.4067 23.8517 38.6371 23.6989 38.8513 23.2932C39.5707 21.931 39.0947 20.6515 36.5392 20.9676C36.5392 20.9676 35.5743 21.0365 33.7941 21.2398C34.9852 18.1679 36.1139 15.2923 37.1545 12.6403V12.639C38.5868 8.98871 39.8528 5.76262 40.8869 3.03308C41.4919 1.43532 41.5728 0.26564 40.5825 0.0270526V0.026622ZM60.4081 1.72559C63.5281 0.185106 65.077 0.390532 65.1105 1.94609C65.154 3.93058 64.8672 6.54815 64.6547 8.48656L64.6418 8.60456C64.2553 12.1338 63.7818 15.4478 63.317 18.701C62.3895 25.1941 61.4968 31.4443 61.3988 38.6786C66.4981 25.456 70.7762 16.266 76.2811 4.94522C77.6283 2.17304 78.5992 1.93187 79.6295 1.67563C79.9378 1.59897 80.2513 1.52102 80.5819 1.37373C86.1792 -1.12066 86.3891 0.411634 85.6577 3.45728C82.9413 14.7596 76.002 50.3358 74.939 55.8134C74.6307 57.3982 72.9137 56.7268 72.4653 56.1066C71.5807 54.8823 70.6468 54.1928 69.9037 53.6441C68.9728 52.9568 68.3411 52.4904 68.4809 51.4697C69.7296 42.3366 74.2244 19.4224 75.3961 14.0223C69.4183 26.2893 63.2237 41.6235 60.0434 50.3177C59.3675 52.1639 58.1402 52.0287 57.3748 50.6777C56.9543 49.9361 56.3794 49.3362 55.8144 48.747C54.9333 47.8284 54.0767 46.9353 53.8669 45.5696C53.1587 40.9503 53.8918 33.62 54.585 26.6924C54.9617 22.9271 55.3263 19.2807 55.4411 16.2531C52.1886 25.6437 46.7272 43.8775 44.3351 52.1157C43.3457 55.5244 40.0626 54.968 40.9351 51.6458C44.5712 37.8207 52.4002 13.3694 55.7911 4.57614C56.357 3.10887 57.5739 2.71999 58.8523 2.31086C59.3739 2.14376 59.9058 1.97365 60.4081 1.72559Z" fill="#DC272D"/>
<path d="M36.7891 42.0151C37.0076 41.8028 37.2314 41.596 37.4603 41.395C38.995 40.0629 40.4604 41.3842 38.9434 43.6361C38.5956 44.1556 38.2288 44.6621 37.8439 45.1547C38.0356 45.702 38.2068 46.1732 38.3427 46.5224C39.1274 48.5371 37.0673 49.0422 36.4034 47.3734C36.3422 47.2191 36.2819 47.0643 36.2228 46.9092C34.9702 48.0203 33.5224 48.7197 31.9744 48.2378C29.4288 47.4445 28.7808 43.8545 31.1578 41.0888C32.1115 39.9789 32.8292 39.2089 33.4291 38.5939C33.2485 38.0018 33.1022 37.5052 33.0064 37.1577C32.6976 36.038 32.419 34.733 33.5378 33.4027C35.6362 30.9092 40.5038 33.1228 38.0417 36.9617C37.4483 37.8864 36.7551 38.7597 36.0318 39.6452C36.28 40.4365 36.5324 41.2265 36.7891 42.0151ZM33.7619 42.51C32.5097 44.2317 33.251 44.8446 34.1811 44.2744C34.4879 44.0824 34.7805 43.8685 35.0566 43.6344C34.8343 42.9787 34.6158 42.3216 34.4013 41.6633C34.1834 41.942 33.9705 42.2242 33.7619 42.51ZM35.1822 36.8308C35.4088 36.5958 35.6305 36.3561 35.8469 36.1116C37.3971 34.3588 34.3325 33.6254 35.0381 36.3063C35.0777 36.4574 35.1271 36.6353 35.1822 36.8308Z" fill="#DC272D"/>
</g>
<defs>
<clipPath id="clip0_96_274">
<rect width="86" height="56.8475" fill="white"/>
</clipPath>
</defs>
</svg>
